<svg width="65" height="44" viewBox="0 0 65 44" fill="none" xmlns="http://www.w3.org/2000/svg">
<path d="M5.66665 0.666687H59C61.9453 0.666687 64.3333 3.05469 64.3333 6.00002V38C64.3333 40.9454 61.9453 43.3334 59 43.3334H5.66665C2.72131 43.3334 0.333313 40.9454 0.333313 38V6.00002C0.333313 3.05469 2.72131 0.666687 5.66665 0.666687Z" fill="#DFE3E8"/>
<path d="M31.4934 13.6002H29.3868V15.2536H31.4934C31.7308 15.2896 31.9721 15.2176 32.1534 15.0576C32.3334 14.8989 32.4334 14.6669 32.4268 14.4269C32.4241 14.1882 32.3214 13.9629 32.1441 13.8056C31.9654 13.6482 31.7294 13.5736 31.4934 13.6002ZM31.4934 13.6002H29.3868V15.2536H31.4934C31.7308 15.2896 31.9721 15.2176 32.1534 15.0576C32.3334 14.8989 32.4334 14.6669 32.4268 14.4269C32.4241 14.1882 32.3214 13.9629 32.1441 13.8056C31.9654 13.6482 31.7294 13.5736 31.4934 13.6002ZM31.4934 13.6002H29.3868V15.2536H31.4934C31.7308 15.2896 31.9721 15.2176 32.1534 15.0576C32.3334 14.8989 32.4334 14.6669 32.4268 14.4269C32.4241 14.1882 32.3214 13.9629 32.1441 13.8056C31.9654 13.6482 31.7294 13.5736 31.4934 13.6002ZM31.4934 13.6002H29.3868V15.2536H31.4934C31.7308 15.2896 31.9721 15.2176 32.1534 15.0576C32.3334 14.8989 32.4334 14.6669 32.4268 14.4269C32.4241 14.1882 32.3214 13.9629 32.1441 13.8056C31.9654 13.6482 31.7294 13.5736 31.4934 13.6002ZM31.4934 13.6002H29.3868V15.2536H31.4934C31.7308 15.2896 31.9721 15.2176 32.1534 15.0576C32.3334 14.8989 32.4334 14.6669 32.4268 14.4269C32.4241 14.1882 32.3214 13.9629 32.1441 13.8056C31.9654 13.6482 31.7294 13.5736 31.4934 13.6002ZM47.3868 14.7202L47.0001 13.5469L46.5201 14.7202L45.8268 16.4802H48.2001L47.3868 14.7202ZM47.3868 14.7202L47.0001 13.5469L46.5201 14.7202L45.8268 16.4802H48.2001L47.3868 14.7202ZM31.4934 13.6002H29.3868V15.2536H31.4934C31.7308 15.2896 31.9721 15.2176 32.1534 15.0576C32.3334 14.8989 32.4334 14.6669 32.4268 14.4269C32.4241 14.1882 32.3214 13.9629 32.1441 13.8056C31.9654 13.6482 31.7294 13.5736 31.4934 13.6002ZM31.4934 13.6002H29.3868V15.2536H31.4934C31.7308 15.2896 31.9721 15.2176 32.1534 15.0576C32.3334 14.8989 32.4334 14.6669 32.4268 14.4269C32.4241 14.1882 32.3214 13.9629 32.1441 13.8056C31.9654 13.6482 31.7294 13.5736 31.4934 13.6002ZM47.3868 14.7202L47.0001 13.5469L46.5201 14.7202L45.8268 16.4802H48.2001L47.3868 14.7202ZM47.3868 14.7202L47.0001 13.5469L46.5201 14.7202L45.8268 16.4802H48.2001L47.3868 14.7202ZM31.4934 13.6002H29.3868V15.2536H31.4934C31.7308 15.2896 31.9721 15.2176 32.1534 15.0576C32.3334 14.8989 32.4334 14.6669 32.4268 14.4269C32.4241 14.1882 32.3214 13.9629 32.1441 13.8056C31.9654 13.6482 31.7294 13.5736 31.4934 13.6002ZM31.4934 13.6002H29.3868V15.2536H31.4934C31.7308 15.2896 31.9721 15.2176 32.1534 15.0576C32.3334 14.8989 32.4334 14.6669 32.4268 14.4269C32.4241 14.1882 32.3214 13.9629 32.1441 13.8056C31.9654 13.6482 31.7294 13.5736 31.4934 13.6002ZM47.3868 14.7202L47.0001 13.5469L46.5201 14.7202L45.8268 16.4802H48.2001L47.3868 14.7202ZM47.3868 14.7202L47.0001 13.5469L46.5201 14.7202L45.8268 16.4802H48.2001L47.3868 14.7202ZM31.4934 13.6002H29.3868V15.2536H31.4934C31.7308 15.2896 31.9721 15.2176 32.1534 15.0576C32.3334 14.8989 32.4334 14.6669 32.4268 14.4269C32.4241 14.1882 32.3214 13.9629 32.1441 13.8056C31.9654 13.6482 31.7294 13.5736 31.4934 13.6002ZM31.4934 13.6002H29.3868V15.2536H31.4934C31.7308 15.2896 31.9721 15.2176 32.1534 15.0576C32.3334 14.8989 32.4334 14.6669 32.4268 14.4269C32.4241 14.1882 32.3214 13.9629 32.1441 13.8056C31.9654 13.6482 31.7294 13.5736 31.4934 13.6002ZM47.4534 14.6669L47.0001 13.5469L46.5201 14.7202L45.8268 16.4802H48.2001L47.4534 14.6669ZM47.4534 14.6669L47.0001 13.5469L46.5201 14.7202L45.8268 16.4802H48.2001L47.4534 14.6669ZM31.5601 13.5469H29.3868V15.2002H31.4934C31.7308 15.2362 31.9721 15.1642 32.1534 15.0042C32.3334 14.8456 32.4334 14.6136 32.4268 14.3736C32.4094 14.1456 32.3001 13.9336 32.1254 13.7882C31.9481 13.6416 31.7201 13.5736 31.4934 13.6002L31.5601 13.5469ZM31.5601 13.5469H29.3868V15.2002H31.4934C31.7308 15.2362 31.9721 15.1642 32.1534 15.0042C32.3334 14.8456 32.4334 14.6136 32.4268 14.3736C32.4094 14.1456 32.3001 13.9336 32.1254 13.7882C31.9481 13.6416 31.7201 13.5736 31.4934 13.6002L31.5601 13.5469ZM47.0001 13.5469L46.5201 14.7202L45.8268 16.4802H48.2001L47.4801 14.7202L47.0001 13.5469ZM58.9334 19.5202H56.8001L54.0134 15.3336L53.5334 14.5069V15.3869V19.5736H51.7468V12.0002H53.9601L56.6268 16.0002L57.1334 16.8536V15.9469V11.9469H59.0001L58.9334 19.5202ZM49.3468 19.5202L48.7068 18.0002H45.1468L44.5068 19.5736H42.5601L45.7868 12.0002H48.1868L51.4001 19.5202H49.3468ZM41.6401 19.5202H41.5334C40.5534 19.5736 39.5988 19.1922 38.9254 18.4776C38.2521 17.7642 37.9281 16.7882 38.0401 15.8136V15.7069C37.9468 14.7122 38.2974 13.7269 38.9948 13.0136C39.6934 12.2989 40.6708 11.9296 41.6668 12.0002H43.7868V13.6269H41.8001C41.2521 13.6002 40.7188 13.8149 40.3441 14.2149C39.9694 14.6162 39.7894 15.1616 39.8534 15.7069V15.8136C39.7814 16.3629 39.9574 16.9162 40.3334 17.3229C40.7094 17.7296 41.2468 17.9482 41.8001 17.9202H42.3734L41.6401 19.5202ZM36.9734 19.5202H35.1468V12.0002H36.9734V19.5202ZM32.4534 19.5202L30.2134 16.8536H29.3868V19.5202H27.5334V12.0002H31.6534C32.3321 11.9109 33.0174 12.1216 33.5294 12.5762C34.0414 13.0322 34.3294 13.6882 34.3201 14.3736C34.3494 15.5749 33.4601 16.6029 32.2668 16.7469L34.7734 19.5202H32.4534ZM26.3334 13.6002H22.1068V14.9336H26.2268V16.5336H22.1068V17.8669H26.3334V19.4669H20.3334V12.0002H26.3334V13.6002ZM18.8801 19.5202H17.1201V14.5869V13.4402L16.7734 14.5869L15.0001 19.5202H13.3734L11.6668 14.5869L11.2934 13.4402V14.5869V19.5202H9.54677V12.0002H12.4934L13.9601 16.3469L14.2001 17.1736L14.4401 16.3469L15.9334 12.0002H18.8801V19.5202ZM7.14677 19.5202L6.50677 18.0002H3.0001L2.3601 19.5736H0.333435L3.6001 12.0002H5.97344L9.2001 19.5202H7.14677ZM55.9201 10.3202V12.5336L54.4934 10.3202H50.3068V13.1202L48.9734 10.3202H41.8534C40.6494 10.2856 39.4694 10.6722 38.5201 11.4136V10.3202H15.0001L14.2001 12.6669L13.4001 10.2669H8.06677V13.0669L6.81344 10.2669H2.46677L0.333435 15.3336V21.2002H3.37344L4.0001 19.5736H5.49344L6.10677 21.2002H30.5601V19.2536L32.1068 21.2002H38.5201V20.2136C39.4601 20.8829 40.5921 21.2296 41.7468 21.2002H45.5734L46.1868 19.5736H47.6801L48.3334 21.2002H54.8668V19.0936L56.2001 21.2002H60.7068V10.3202H55.9201ZM31.4934 13.6002H29.3868V15.2536H31.4934C31.7308 15.2896 31.9721 15.2176 32.1534 15.0576C32.3334 14.8989 32.4334 14.6669 32.4268 14.4269C32.4241 14.1882 32.3214 13.9629 32.1441 13.8056C31.9654 13.6482 31.7294 13.5736 31.4934 13.6002ZM47.3868 14.7202L47.0001 13.5469L46.5201 14.7202L45.8268 16.4802H48.2001L47.3868 14.7202ZM47.3868 14.7202L47.0001 13.5469L46.5201 14.7202L45.8268 16.4802H48.2001L47.3868 14.7202ZM31.4934 13.6002H29.3868V15.2536H31.4934C31.7308 15.2896 31.9721 15.2176 32.1534 15.0576C32.3334 14.8989 32.4334 14.6669 32.4268 14.4269C32.4241 14.1882 32.3214 13.9629 32.1441 13.8056C31.9654 13.6482 31.7294 13.5736 31.4934 13.6002ZM31.4934 13.6002H29.3868V15.2536H31.4934C31.7308 15.2896 31.9721 15.2176 32.1534 15.0576C32.3334 14.8989 32.4334 14.6669 32.4268 14.4269C32.4241 14.1882 32.3214 13.9629 32.1441 13.8056C31.9654 13.6482 31.7294 13.5736 31.4934 13.6002ZM47.3868 14.7202L47.0001 13.5469L46.5201 14.7202L45.8268 16.4802H48.2001L47.3868 14.7202ZM47.3868 14.7202L47.0001 13.5469L46.5201 14.7202L45.8268 16.4802H48.2001L47.3868 14.7202ZM31.4934 13.6002H29.3868V15.2536H31.4934C31.7308 15.2896 31.9721 15.2176 32.1534 15.0576C32.3334 14.8989 32.4334 14.6669 32.4268 14.4269C32.4241 14.1882 32.3214 13.9629 32.1441 13.8056C31.9654 13.6482 31.7294 13.5736 31.4934 13.6002ZM31.4934 13.6002H29.3868V15.2536H31.4934C31.7308 15.2896 31.9721 15.2176 32.1534 15.0576C32.3334 14.8989 32.4334 14.6669 32.4268 14.4269C32.4241 14.1882 32.3214 13.9629 32.1441 13.8056C31.9654 13.6482 31.7294 13.5736 31.4934 13.6002ZM47.3868 14.7202L47.0001 13.5469L46.5201 14.7202L45.8268 16.4802H48.2001L47.3868 14.7202ZM47.3868 14.7202L47.0001 13.5469L46.5201 14.7202L45.8268 16.4802H48.2001L47.3868 14.7202ZM31.4934 13.6002H29.3868V15.2536H31.4934C31.7308 15.2896 31.9721 15.2176 32.1534 15.0576C32.3334 14.8989 32.4334 14.6669 32.4268 14.4269C32.4241 14.1882 32.3214 13.9629 32.1441 13.8056C31.9654 13.6482 31.7294 13.5736 31.4934 13.6002ZM31.4934 13.6002H29.3868V15.2536H31.4934C31.7308 15.2896 31.9721 15.2176 32.1534 15.0576C32.3334 14.8989 32.4334 14.6669 32.4268 14.4269C32.4241 14.1882 32.3214 13.9629 32.1441 13.8056C31.9654 13.6482 31.7294 13.5736 31.4934 13.6002ZM47.3868 14.7202L47.0001 13.5469L46.5201 14.7202L45.8268 16.4802H48.2001L47.3868 14.7202ZM47.3868 14.7202L47.0001 13.5469L46.5201 14.7202L45.8268 16.4802H48.2001L47.3868 14.7202ZM31.4934 13.6002H29.3868V15.2536H31.4934C31.7308 15.2896 31.9721 15.2176 32.1534 15.0576C32.3334 14.8989 32.4334 14.6669 32.4268 14.4269C32.4241 14.1882 32.3214 13.9629 32.1441 13.8056C31.9654 13.6482 31.7294 13.5736 31.4934 13.6002ZM31.4934 13.6002H29.3868V15.2536H31.4934C31.7308 15.2896 31.9721 15.2176 32.1534 15.0576C32.3334 14.8989 32.4334 14.6669 32.4268 14.4269C32.4241 14.1882 32.3214 13.9629 32.1441 13.8056C31.9654 13.6482 31.7294 13.5736 31.4934 13.6002ZM47.3868 14.7202L47.0001 13.5469L46.5201 14.7202L45.8268 16.4802H48.2001L47.3868 14.7202ZM47.3868 14.7202L47.0001 13.5469L46.5201 14.7202L45.8268 16.4802H48.2001L47.3868 14.7202ZM31.4934 13.6002H29.3868V15.2536H31.4934C31.7308 15.2896 31.9721 15.2176 32.1534 15.0576C32.3334 14.8989 32.4334 14.6669 32.4268 14.4269C32.4241 14.1882 32.3214 13.9629 32.1441 13.8056C31.9654 13.6482 31.7294 13.5736 31.4934 13.6002ZM31.4934 13.6002H29.3868V15.2536H31.4934C31.7308 15.2896 31.9721 15.2176 32.1534 15.0576C32.3334 14.8989 32.4334 14.6669 32.4268 14.4269C32.4241 14.1882 32.3214 13.9629 32.1441 13.8056C31.9654 13.6482 31.7294 13.5736 31.4934 13.6002ZM31.4934 13.6002H29.3868V15.2536H31.4934C31.7308 15.2896 31.9721 15.2176 32.1534 15.0576C32.3334 14.8989 32.4334 14.6669 32.4268 14.4269C32.4241 14.1882 32.3214 13.9629 32.1441 13.8056C31.9654 13.6482 31.7294 13.5736 31.4934 13.6002Z" fill="#2B6DB6"/>
<path d="M32.7468 27.8132H30.5868V29.6532H32.7468C33.2548 29.6532 33.6668 29.2412 33.6668 28.7332C33.6668 28.2252 33.2548 27.8132 32.7468 27.8132ZM40.4135 27.8132H38.3068V29.4665H40.4135C40.6508 29.5025 40.8921 29.4305 41.0735 29.2705C41.2535 29.1119 41.3535 28.8799 41.3468 28.6399C41.3495 28.4012 41.2468 28.1732 41.0681 28.0145C40.8895 27.8559 40.6508 27.7825 40.4135 27.8132ZM40.4135 27.8132H38.3068V29.4665H40.4135C40.6508 29.5025 40.8921 29.4305 41.0735 29.2705C41.2535 29.1119 41.3535 28.8799 41.3468 28.6399C41.3495 28.4012 41.2468 28.1732 41.0681 28.0145C40.8895 27.8559 40.6508 27.7825 40.4135 27.8132ZM32.7468 27.8132H30.5868V29.6532H32.7468C33.2548 29.6532 33.6668 29.2412 33.6668 28.7332C33.6668 28.2252 33.2548 27.8132 32.7468 27.8132ZM32.7468 27.8132H30.5868V29.6532H32.7468C33.2548 29.6532 33.6668 29.2412 33.6668 28.7332C33.6668 28.2252 33.2548 27.8132 32.7468 27.8132ZM40.4135 27.8132H38.3068V29.4665H40.4135C40.6508 29.5025 40.8921 29.4305 41.0735 29.2705C41.2535 29.1119 41.3535 28.8799 41.3468 28.6399C41.3495 28.4012 41.2468 28.1732 41.0681 28.0145C40.8895 27.8559 40.6508 27.7825 40.4135 27.8132ZM40.4135 27.8132H38.3068V29.4665H40.4135C40.6508 29.5025 40.8921 29.4305 41.0735 29.2705C41.2535 29.1119 41.3535 28.8799 41.3468 28.6399C41.3495 28.4012 41.2468 28.1732 41.0681 28.0145C40.8895 27.8559 40.6508 27.7825 40.4135 27.8132ZM32.7468 27.8132H30.5868V29.6532H32.7468C33.2548 29.6532 33.6668 29.2412 33.6668 28.7332C33.6668 28.2252 33.2548 27.8132 32.7468 27.8132ZM32.7468 27.8132H30.5868V29.6532H32.7468C33.2548 29.6532 33.6668 29.2412 33.6668 28.7332C33.6668 28.2252 33.2548 27.8132 32.7468 27.8132ZM40.4135 27.8132H38.3068V29.4665H40.4135C40.6508 29.5025 40.8921 29.4305 41.0735 29.2705C41.2535 29.1119 41.3535 28.8799 41.3468 28.6399C41.3495 28.4012 41.2468 28.1732 41.0681 28.0145C40.8895 27.8559 40.6508 27.7825 40.4135 27.8132ZM55.0001 33.7332H51.1068V32.1332H55.0001C55.2708 32.1879 55.5468 32.0732 55.6988 31.8452C55.8521 31.6159 55.8521 31.3172 55.6988 31.0892C55.5468 30.8599 55.2708 30.7452 55.0001 30.7999H53.2401C52.6215 30.8772 52.0001 30.6732 51.5468 30.2452C51.0921 29.8172 50.8535 29.2092 50.8935 28.5865C50.8815 27.9172 51.1588 27.2759 51.6548 26.8265C52.1495 26.3772 52.8148 26.1625 53.4801 26.2399H57.3868L56.6668 27.8399H53.4268C53.1575 27.7852 52.8815 27.8999 52.7268 28.1279C52.5748 28.3572 52.5748 28.6559 52.7268 28.8852C52.8815 29.1145 53.1575 29.2279 53.4268 29.1732H55.1735C55.7841 29.0892 56.4015 29.2825 56.8561 29.6999C57.3095 30.1185 57.5535 30.7172 57.5201 31.3332C57.5415 31.9972 57.2775 32.6399 56.7975 33.0972C56.3161 33.5559 55.6628 33.7865 55.0001 33.7332ZM50.1068 27.8132H45.9201V29.1465H50.0401V30.7199H45.9201V32.0532H50.1468V33.6532H44.0801V26.2132H50.1468L50.1068 27.8132ZM41.3335 33.7332L39.0935 31.0665H38.2668V33.7332H36.4935V26.2132H40.5735C41.4215 26.1132 42.2575 26.4732 42.7695 27.1572C43.2788 27.8412 43.3855 28.7465 43.0495 29.5305C42.7121 30.3145 41.9815 30.8599 41.1335 30.9599L43.6535 33.7332H41.3335ZM32.8135 31.2532H30.5468V33.7332H28.7601V26.2132H32.9068C33.6068 26.1385 34.3028 26.3732 34.8148 26.8545C35.3281 27.3372 35.6041 28.0172 35.5735 28.7199C35.5961 29.4319 35.3108 30.1185 34.7895 30.6052C34.2681 31.0905 33.5615 31.3265 32.8535 31.2532H32.8135ZM26.1468 33.7332L24.3335 31.3332L22.4535 33.7332H20.3335L23.2668 29.9999L20.2401 26.2399H22.5068L24.3335 28.5865L26.1735 26.2132H28.3868L25.4001 29.9999L28.4401 33.7865L26.1468 33.7332ZM19.9468 27.8132H15.7201V29.1465H19.8668V30.7199H15.7201V32.0532H19.9468V33.6532H13.9068V26.2132H19.9468V27.8132ZM60.4268 26.2132H64.3335V24.5332H25.4801L24.3335 26.1332L23.2135 24.5332H12.1735V35.4132H23.1868L24.3335 33.7865L25.4535 35.4132H32.1868V32.9599H32.9335C33.6108 32.9665 34.2855 32.8679 34.9335 32.6665V35.4132H39.5068V33.4665L41.0535 35.4132H61.8801C62.7361 35.4279 63.5788 35.1972 64.3068 34.7465V32.2132C63.9335 33.2092 62.9388 33.8319 61.8801 33.7332H58.0535V32.1332H61.9068C62.1761 32.1879 62.4521 32.0732 62.6068 31.8452C62.7588 31.6159 62.7588 31.3172 62.6068 31.0892C62.4521 30.8599 62.1761 30.7452 61.9068 30.7999H60.1868C59.5681 30.8772 58.9468 30.6732 58.4935 30.2452C58.0388 29.8172 57.8001 29.2092 57.8401 28.5865C57.8201 27.9132 58.0935 27.2639 58.5908 26.8092C59.0868 26.3532 59.7575 26.1359 60.4268 26.2132ZM32.7468 27.8132H30.5868V29.6532H32.7468C33.2548 29.6532 33.6668 29.2412 33.6668 28.7332C33.6668 28.2252 33.2548 27.8132 32.7468 27.8132ZM40.4135 27.8132H38.3068V29.4665H40.4135C40.6508 29.5025 40.8921 29.4305 41.0735 29.2705C41.2535 29.1119 41.3535 28.8799 41.3468 28.6399C41.3495 28.4012 41.2468 28.1732 41.0681 28.0145C40.8895 27.8559 40.6508 27.7825 40.4135 27.8132ZM63.6135 27.8132H60.3335C60.0628 27.7585 59.7868 27.8732 59.6348 28.1012C59.4815 28.3305 59.4815 28.6292 59.6348 28.8585C59.7868 29.0879 60.0628 29.2012 60.3335 29.1465H62.0801C63.0028 29.0519 63.8828 29.5559 64.2668 30.3999V26.2665L63.6135 27.8132ZM40.4135 27.8132H38.3068V29.4665H40.4135C40.6508 29.5025 40.8921 29.4305 41.0735 29.2705C41.2535 29.1119 41.3535 28.8799 41.3468 28.6399C41.3495 28.4012 41.2468 28.1732 41.0681 28.0145C40.8895 27.8559 40.6508 27.7825 40.4135 27.8132ZM32.7468 27.8132H30.5868V29.6532H32.7468C33.2548 29.6532 33.6668 29.2412 33.6668 28.7332C33.6668 28.2252 33.2548 27.8132 32.7468 27.8132ZM32.7468 27.8132H30.5868V29.6532H32.7468C33.2548 29.6532 33.6668 29.2412 33.6668 28.7332C33.6668 28.2252 33.2548 27.8132 32.7468 27.8132ZM40.4135 27.8132H38.3068V29.4665H40.4135C40.6508 29.5025 40.8921 29.4305 41.0735 29.2705C41.2535 29.1119 41.3535 28.8799 41.3468 28.6399C41.3495 28.4012 41.2468 28.1732 41.0681 28.0145C40.8895 27.8559 40.6508 27.7825 40.4135 27.8132ZM40.4135 27.8132H38.3068V29.4665H40.4135C40.6508 29.5025 40.8921 29.4305 41.0735 29.2705C41.2535 29.1119 41.3535 28.8799 41.3468 28.6399C41.3495 28.4012 41.2468 28.1732 41.0681 28.0145C40.8895 27.8559 40.6508 27.7825 40.4135 27.8132ZM32.7468 27.8132H30.5868V29.6532H32.7468C33.2548 29.6532 33.6668 29.2412 33.6668 28.7332C33.6668 28.2252 33.2548 27.8132 32.7468 27.8132ZM32.7468 27.8132H30.5868V29.6532H32.7468C33.2548 29.6532 33.6668 29.2412 33.6668 28.7332C33.6668 28.2252 33.2548 27.8132 32.7468 27.8132ZM32.7468 27.8132H30.5868V29.6532H32.7468C33.2548 29.6532 33.6668 29.2412 33.6668 28.7332C33.6668 28.2252 33.2548 27.8132 32.7468 27.8132Z" fill="#2B6DB6"/>
</svg>
