<svg width="65" height="44" viewBox="0 0 65 44" fill="none" xmlns="http://www.w3.org/2000/svg">
<path d="M6.00008 0.666687H59.3334C62.2788 0.666687 64.6667 3.05469 64.6667 6.00002V38C64.6667 40.9454 62.2788 43.3334 59.3334 43.3334H6.00008C3.05475 43.3334 0.666748 40.9454 0.666748 38V6.00002C0.666748 3.05469 3.05475 0.666687 6.00008 0.666687Z" fill="#DFE3E8"/>
<path d="M46.3867 25.4264C44.4933 32.9957 36.8253 37.5984 29.2547 35.7104C21.6853 33.8211 17.0773 26.1557 18.9613 18.5851C20.8453 11.0131 28.508 6.39973 36.08 8.27973C39.7227 9.18373 42.856 11.4997 44.7893 14.7157C46.7227 17.9317 47.2973 21.7864 46.3867 25.4264Z" fill="#F89521"/>
<path d="M35.8138 19.9603C35.3738 21.7069 32.6672 20.8136 31.8138 20.6003L32.6672 17.5069C33.4658 17.7203 36.2925 18.1336 35.8405 19.9603H35.8138ZM35.3338 24.9603C34.8525 26.8803 31.6005 25.8403 30.5605 25.5869L31.3992 22.1603C32.4525 22.4269 35.8272 22.9469 35.3338 24.9603ZM38.9058 19.9869C39.1858 18.1069 37.7458 17.0936 35.7858 16.4136L36.4272 13.8669L34.8805 13.4803L34.2538 15.9603L33.0125 15.6669L33.6405 13.1736L32.0792 12.7869L31.4525 15.3336L30.4525 15.1069L28.3072 14.5736L27.8938 16.2269C27.8938 16.2269 29.0405 16.4936 29.0258 16.5069C29.4738 16.5629 29.7938 16.9656 29.7458 17.4136L29.0258 20.3203H29.1858H29.0125L28.0005 24.3203C27.9538 24.4616 27.8538 24.5789 27.7218 24.6469C27.5885 24.7136 27.4352 24.7256 27.2925 24.6803L26.1605 24.4003L25.3992 26.1736L27.4125 26.6803L28.5192 26.9736L27.8805 29.5469L29.4272 29.9336L30.0658 27.3869L31.2925 27.7069L30.6672 30.2403L32.2138 30.6269L32.8672 28.0536C35.5338 28.5603 37.4938 28.3469 38.3338 25.9603C38.6965 25.2803 38.7485 24.4763 38.4752 23.7549C38.2018 23.0349 37.6298 22.4669 36.9058 22.2003C38.0045 21.9696 38.8152 21.0389 38.8938 19.9203L38.9058 19.9869Z" fill="white"/>
</svg>
