<svg width="65" height="44" viewBox="0 0 65 44" fill="none" xmlns="http://www.w3.org/2000/svg">
<path d="M6.00002 0.666687H59.3334C62.2787 0.666687 64.6667 3.05469 64.6667 6.00002V38C64.6667 40.9454 62.2787 43.3334 59.3334 43.3334H6.00002C3.05469 43.3334 0.666687 40.9454 0.666687 38V6.00002C0.666687 3.05469 3.05469 0.666687 6.00002 0.666687Z" fill="#DFE3E8"/>
<path d="M25.8666 10.88H39.48V33.12H25.8666V10.88Z" fill="#7373B6"/>
<path d="M27.3333 22C27.3107 17.6707 29.2773 13.572 32.6667 10.88C26.8667 6.31867 18.536 6.98134 13.5293 12.4013C8.524 17.8213 8.524 26.1787 13.5293 31.5987C18.536 37.0187 26.8667 37.6813 32.6667 33.12C29.2773 30.428 27.3107 26.3293 27.3333 22Z" fill="#EC2227"/>
<path d="M55.0937 30.7597V30.2131H54.9591L54.7991 30.5997L54.6257 30.2131H54.4937V30.7597H54.5871V30.3464L54.7457 30.7064H54.8524L55.0004 30.3464V30.7597H55.0937ZM54.1857 30.7597V30.3064H54.3871V30.2131H53.9204V30.3064H54.1071V30.7597H54.1857Z" fill="#16A1DB"/>
<path d="M55.5469 22C55.5429 27.4133 52.4523 32.348 47.5829 34.7146C42.7163 37.08 36.9243 36.4613 32.6669 33.12C38.7989 28.2906 39.8616 19.4053 35.0403 13.2666C34.3496 12.3773 33.5523 11.576 32.6669 10.88C36.9243 7.53864 42.7163 6.91997 47.5829 9.2853C52.4523 11.652 55.5429 16.5866 55.5469 22Z" fill="#16A1DB"/>
</svg>
