<svg width="64" height="44" viewBox="0 0 64 44" fill="none" xmlns="http://www.w3.org/2000/svg">
<path d="M5.33333 0.666687H58.6667C61.612 0.666687 64 3.05469 64 6.00002V38C64 40.9454 61.612 43.3334 58.6667 43.3334H5.33333C2.388 43.3334 0 40.9454 0 38V6.00002C0 3.05469 2.388 0.666687 5.33333 0.666687Z" fill="#DFE3E8"/>
<path d="M25.2 10.88H38.8134V33.12H25.2V10.88Z" fill="#F26323"/>
<path d="M26.6666 22C26.644 17.6707 28.6106 13.572 32 10.88C26.2 6.31867 17.8693 6.98134 12.8626 12.4013C7.85731 17.8213 7.85731 26.1787 12.8626 31.5987C17.8693 37.0187 26.2 37.6813 32 33.12C28.6106 30.428 26.644 26.3293 26.6666 22Z" fill="#E92228"/>
<path d="M54.4264 30.7597V30.2131H54.2931L54.1331 30.5997L53.9597 30.2131H53.8264V30.7597H53.9197V30.3464L54.0797 30.7064H54.1864L54.3331 30.3464V30.7597H54.4264ZM53.5197 30.7597V30.3064H53.7197V30.2131H53.2531V30.3064H53.4397V30.7597H53.5197Z" fill="#F59E20"/>
<path d="M54.8802 22C54.8762 27.4133 51.7856 32.348 46.9176 34.7146C42.0496 37.08 36.2576 36.4613 32.0002 33.12C38.1336 28.2906 39.1949 19.4053 34.3736 13.2666C33.6829 12.3773 32.8842 11.576 32.0002 10.88C36.2576 7.53864 42.0496 6.91997 46.9176 9.2853C51.7856 11.652 54.8762 16.5866 54.8802 22Z" fill="#F59E20"/>
</svg>
