<svg width="65" height="44" viewBox="0 0 65 44" fill="none" xmlns="http://www.w3.org/2000/svg">
<path d="M5.66659 0.666687H58.9999C61.9453 0.666687 64.3333 3.05469 64.3333 6.00002V38C64.3333 40.9454 61.9453 43.3334 58.9999 43.3334H5.66659C2.72125 43.3334 0.333252 40.9454 0.333252 38V6.00002C0.333252 3.05469 2.72125 0.666687 5.66659 0.666687Z" fill="#DFE3E8"/>
<path d="M27.4529 34.4264L27.9209 31.493H26.8796H21.9742L25.3862 9.81303C25.3956 9.74636 25.4276 9.68503 25.4809 9.63969C25.5342 9.59836 25.5982 9.5757 25.6662 9.57303H33.9462C36.7062 9.57303 38.5996 10.1464 39.5996 11.2797C40.0422 11.7557 40.3502 12.3397 40.4929 12.973C40.6476 13.7437 40.6476 14.537 40.4929 15.3064V15.973L40.9596 16.2397C41.3142 16.417 41.6356 16.6557 41.9062 16.9464C42.3142 17.4384 42.5769 18.0344 42.6662 18.6664C42.7662 19.493 42.7302 20.3317 42.5596 21.1464C42.3836 22.137 42.0369 23.089 41.5342 23.9597C41.1262 24.6584 40.5769 25.2624 39.9209 25.733C39.2582 26.1837 38.5236 26.513 37.7462 26.7064C36.8742 26.9264 35.9796 27.0344 35.0796 27.0264H34.4262C33.9689 27.0264 33.5249 27.1864 33.1729 27.4797C32.8182 27.7784 32.5876 28.1957 32.5196 28.653V28.9197L31.7062 34.093V34.293C31.7156 34.3277 31.7156 34.365 31.7062 34.3997H31.6262L27.4529 34.4264Z" fill="#253E81"/>
<path d="M41.3997 15.4401L41.3197 15.9335C40.2264 21.5335 36.481 23.4801 31.7064 23.4801H29.2797C28.697 23.4788 28.1984 23.9041 28.1064 24.4801L26.8677 32.3735L26.5064 34.6135C26.4797 34.7935 26.5317 34.9748 26.649 35.1135C26.7664 35.2508 26.9384 35.3308 27.1197 35.3335H31.4397C31.9517 35.3321 32.3877 34.9601 32.4664 34.4535V34.2401L33.2797 29.0801V28.8001C33.353 28.2961 33.7837 27.9215 34.293 27.9201H34.9997C39.173 27.9201 42.453 26.2268 43.3997 21.2535C43.913 19.5535 43.5957 17.7121 42.5464 16.2801C42.213 15.9388 41.825 15.6548 41.3997 15.4401Z" fill="#1E9BD7"/>
<path d="M40.2539 14.9869L39.7459 14.8536L39.1859 14.7469C38.4806 14.6416 37.7672 14.5922 37.0539 14.6002H30.5472C30.3939 14.5962 30.2432 14.6269 30.1072 14.6936C29.7966 14.8376 29.5819 15.1282 29.5339 15.4669L28.2006 24.2269V24.4802C28.2912 23.9029 28.7886 23.4789 29.3739 23.4802H31.7992C36.5726 23.4802 40.3206 21.5336 41.4126 15.9336L41.4939 15.4402C41.2059 15.2922 40.9072 15.1669 40.6006 15.0669L40.2539 14.9869Z" fill="#232F65"/>
<path d="M29.5337 15.4668C29.5817 15.1294 29.7964 14.8374 30.1071 14.6934C30.2431 14.6281 30.3951 14.5961 30.5471 14.6001H37.0537C37.7671 14.5921 38.4804 14.6414 39.1857 14.7468L39.7457 14.8534L40.2537 14.9868L40.5057 15.0668C40.8137 15.1668 41.1137 15.2921 41.3991 15.4401C41.8337 13.7734 41.4364 12.0014 40.3337 10.6801C39.0004 9.26678 36.8137 8.66678 33.9591 8.66678H25.6671C25.0831 8.66544 24.5844 9.08944 24.4937 9.66678L21.0404 31.5468C21.0084 31.7534 21.0684 31.9628 21.2044 32.1214C21.3391 32.2801 21.5377 32.3721 21.7457 32.3734H26.8671L28.2004 24.2268L29.5337 15.4668Z" fill="#253E81"/>
</svg>
