<svg width="65" height="44" viewBox="0 0 65 44" fill="none" xmlns="http://www.w3.org/2000/svg">
<path d="M6.00002 0.666687H59.3334C62.2787 0.666687 64.6667 3.05469 64.6667 6.00002V38C64.6667 40.9454 62.2787 43.3334 59.3334 43.3334H6.00002C3.05469 43.3334 0.666687 40.9454 0.666687 38V6.00002C0.666687 3.05469 3.05469 0.666687 6.00002 0.666687Z" fill="#DFE3E8"/>
<path d="M27.9869 15.8132L22.8136 28.1465H19.3336L16.7869 18.2932C16.7416 17.8238 16.4536 17.4145 16.0269 17.2132C15.0256 16.7358 13.9682 16.3865 12.8802 16.1732L12.9602 15.8132H18.3869C19.1216 15.8105 19.7482 16.3412 19.8669 17.0665L21.2002 24.1998L24.5202 15.8132H27.9869ZM41.1336 24.2265C41.1469 20.9065 36.6669 20.6665 36.6669 19.3332C36.6669 18.8932 37.0936 18.4265 38.0002 18.3065C39.0789 18.1998 40.1669 18.3892 41.1469 18.8532L41.7069 16.1865C40.7509 15.8292 39.7403 15.6438 38.7203 15.6398C35.5736 15.6398 33.3869 17.3198 33.3869 19.7198C33.3869 21.4932 34.9736 22.4798 36.1736 23.0665C37.3736 23.6532 37.8402 24.0665 37.8269 24.5998C37.8269 25.4265 36.8402 25.7998 35.9202 25.8132C34.7856 25.8278 33.6656 25.5532 32.6669 25.0132L32.0936 27.6798C33.2229 28.1212 34.4269 28.3425 35.6402 28.3332C38.9869 28.3332 41.1869 26.6798 41.2002 24.1198M49.4536 28.2265H52.4136L49.8269 15.8932H47.1602C46.5736 15.8985 46.0469 16.2572 45.8269 16.7998L41.0402 28.2265H44.4002L45.0536 26.3865H49.0669L49.4536 28.2265ZM45.8936 23.8532L47.5736 19.2265L48.5469 23.8532H45.8936ZM32.4802 15.8532L29.8136 28.1865H26.6136L29.2803 15.8532H32.4802Z" fill="#2A2C6B"/>
</svg>
